<?xml version="1.0" encoding="UTF-8" standalone="no"?>
<svg width="72px" height="72px" viewBox="0 0 72 72" version="1.1" xmlns="http://www.w3.org/2000/svg" xmlns:xlink="http://www.w3.org/1999/xlink">
    <!-- Generator: Sketch 43.1 (39012) - http://www.bohemiancoding.com/sketch -->
    <title>f1</title>
    <desc>Created with Sketch.</desc>
    <defs></defs>
    <g id="Page-1" stroke="none" stroke-width="1" fill="none" fill-rule="evenodd">
        <g id="f1" fill-rule="nonzero">
            <circle id="Oval-2" fill="#0E80A4" opacity="0.1" cx="36" cy="36" r="36"></circle>
            <path d="M33.3427136,39.9180704 C33.5418358,40.0325568 33.7868074,40.0325568 33.9859296,39.9180704 L40.8607839,35.9488643 C41.059819,35.8339711 41.1824333,35.621615 41.1824333,35.391799 C41.1824333,35.161983 41.059819,34.9496269 40.8607839,34.8347337 L40.8607839,34.8347337 L33.9859296,30.8655276 C33.786908,30.7506224 33.5417018,30.7506285 33.3426858,30.8655437 C33.1436699,30.9804588 33.0210826,31.1928227 33.0211055,31.4226332 L33.0211055,39.360804 C33.0214384,39.5905725 33.1439349,39.8028283 33.3427136,39.9180704 L33.3427136,39.9180704 Z M53.3211658,20.040201 L53.3211658,20.040201 C54.5554867,20.0410866 55.5561044,21.0410568 55.5577889,22.2753769 L55.5577889,49.7246231 C55.5560601,50.9589248 54.5554684,51.9588691 53.3211658,51.959799 L18.2366231,51.959799 C17.0023205,51.9588691 16.0017288,50.9589248 16,49.7246231 L16,22.2753769 C16.0016846,21.0410568 17.0023022,20.0410866 18.2366231,20.040201 L53.3211658,20.040201 Z M18.2366231,21.0050251 L18.2366231,21.0050251 C17.5349394,21.0053789 16.9659768,21.573694 16.9648241,22.2753769 L16.9648241,27.200804 L54.5929648,27.200804 L54.5929648,22.2753769 C54.5918121,21.573694 54.0228496,21.0053789 53.3211658,21.0050251 L18.2366231,21.0050251 Z M33.9859296,31.9796583 L39.8959598,35.3917588 L33.9859296,38.8039397 L33.9859296,31.9796583 Z M54.5929648,28.1653869 L16.9648241,28.1653869 L16.9648241,44.0546734 L54.5929648,44.0546734 L54.5929648,28.1653869 Z M19.4936281,47.3838794 L19.4936281,47.3838794 C19.760057,47.3838794 19.9760402,47.5998626 19.9760402,47.8662915 C19.9760402,48.1327203 19.760057,48.3487035 19.4936281,48.3487035 L19.0183719,48.3487035 C18.751943,48.3487035 18.5359598,48.1327203 18.5359598,47.8662915 C18.5359598,47.5998626 18.751943,47.3838794 19.0183719,47.3838794 L19.4936281,47.3838794 Z M21.9056884,47.3838794 C22.1721173,47.3838794 22.3881005,47.5998626 22.3881005,47.8662915 C22.3881005,48.1327203 22.1721173,48.3487035 21.9056884,48.3487035 L21.4304322,48.3487035 C21.1640033,48.3487035 20.9480201,48.1327203 20.9480201,47.8662915 C20.9480201,47.5998626 21.1640033,47.3838794 21.4304322,47.3838794 L21.9056884,47.3838794 Z M52.4584523,47.3838794 L52.4584523,47.3838794 C52.7248811,47.3838794 52.9408643,47.5998626 52.9408643,47.8662915 C52.9408643,48.1327203 52.7248811,48.3487035 52.4584523,48.3487035 L26.3236181,48.3487035 L26.3236181,48.5394171 C26.3236181,48.8058459 26.1076349,49.0218291 25.841206,49.0218291 C25.5747772,49.0218291 25.358794,48.8058459 25.358794,48.5394171 L25.358794,48.3487035 L24.6468342,48.3487035 C24.3804053,48.3487035 24.1644221,48.1327203 24.1644221,47.8662915 C24.1644221,47.5998626 24.3804053,47.3838794 24.6468342,47.3838794 L25.358794,47.3838794 L25.358794,47.1879397 C25.358794,46.9215109 25.5747772,46.7055276 25.841206,46.7055276 C26.1076349,46.7055276 26.3236181,46.9215109 26.3236181,47.1879397 L26.3236181,47.3838794 L52.4584523,47.3838794 Z M53.3211658,50.9949749 C54.0228496,50.9946211 54.5918121,50.426306 54.5929648,49.7246231 L54.5929648,45.0194975 L16.9648241,45.0194975 L16.9648241,49.7246231 C16.9659768,50.426306 17.5349394,50.9946211 18.2366231,50.9949749 L53.3211658,50.9949749 Z M20.0660101,25.9010251 L20.0660101,25.9010251 C19.0392135,25.9001839 18.2068537,25.0683637 18.2053467,24.0415678 C18.2053469,23.014775 19.0376094,22.1823328 20.0644023,22.182111 C21.0911951,22.1818891 21.9238172,23.0139716 21.9242611,24.0407643 C21.924705,25.0675571 21.0928027,25.9003592 20.0660101,25.9010251 Z M20.0660101,23.1470151 L20.0660101,23.1470151 C19.5718453,23.1472359 19.1711018,23.5474039 19.1701709,24.0415678 C19.1701269,24.5355135 19.5704034,24.9360292 20.0643489,24.9362805 C20.5582945,24.9365317 20.9589782,24.5364234 20.9594368,24.042478 C20.9598954,23.5485326 20.5599552,23.147681 20.0660101,23.1470151 Z M25.0280201,25.9010251 C24.0011921,25.9002282 23.1687834,25.068395 23.1672764,24.0415678 C23.1672766,23.0147855 23.9995228,22.1823477 25.0263052,22.182111 C26.0530875,22.1818744 26.8857173,23.0139285 26.8861908,24.0407108 C26.8866642,25.0674931 26.0548022,25.9003148 25.0280201,25.9010251 Z M25.0280201,23.1470151 C24.5338422,23.1472358 24.1330757,23.5473909 24.1321005,24.0415678 C24.1320566,24.535503 24.5323168,24.9360143 25.0262519,24.9362804 C25.5201869,24.9365464 25.9208783,24.5364663 25.9213664,24.0425314 C25.9218545,23.5485965 25.5219547,23.1477253 25.0280201,23.1470151 Z M29.8980503,25.9010251 L29.8980503,25.9010251 C28.8712223,25.9002282 28.0388136,25.068395 28.0373065,24.0415678 C28.0373068,23.0147855 28.8695529,22.1823477 29.8963353,22.182111 C30.9231177,22.1818744 31.7557474,23.0139285 31.7562209,24.0407108 C31.7566944,25.0674931 30.9248324,25.9003148 29.8980503,25.9010251 Z M29.8980503,23.1470151 L29.8980503,23.1470151 C29.4038724,23.1472358 29.0031058,23.5473909 29.0021307,24.0415678 C29.0020868,24.535503 29.4023469,24.9360143 29.896282,24.9362804 C30.3902171,24.9365464 30.7909084,24.5364663 30.7913965,24.0425314 C30.7918847,23.5485965 30.3919849,23.1477253 29.8980503,23.1470151 Z M37.1572261,24.4322412 L37.1572261,24.4322412 C36.8907973,24.4322412 36.6748141,24.216258 36.6748141,23.9498291 C36.6748141,23.6834003 36.8907973,23.4674171 37.1572261,23.4674171 L52.9619296,23.4674171 C53.2283585,23.4674171 53.4443417,23.6834003 53.4443417,23.9498291 C53.4443417,24.216258 53.2283585,24.4322412 52.9619296,24.4322412 L37.1572261,24.4322412 Z" id="Combined-Shape" fill="#226E86"></path>
        </g>
    </g>
</svg>