<?xml version="1.0" encoding="UTF-8" standalone="no"?>
<svg width="72px" height="72px" viewBox="0 0 72 72" version="1.1" xmlns="http://www.w3.org/2000/svg" xmlns:xlink="http://www.w3.org/1999/xlink">
    <!-- Generator: Sketch 43.1 (39012) - http://www.bohemiancoding.com/sketch -->
    <title>f4</title>
    <desc>Created with Sketch.</desc>
    <defs></defs>
    <g id="Page-1" stroke="none" stroke-width="1" fill="none" fill-rule="evenodd">
        <g id="f4" fill-rule="nonzero">
            <circle id="Oval-2-Copy-2" fill="#0E80A4" opacity="0.1" cx="36" cy="36" r="36"></circle>
            <path d="M54.0084066,51.3207435 L54.0084066,51.3204383 C54.108681,51.4205877 54.165025,51.5564946 54.165025,51.6982157 C54.165025,51.8399368 54.108681,51.9758436 54.0084066,52.0759931 L52.0656386,54.0184558 C51.9315349,54.1573595 51.7329175,54.2130962 51.546125,54.1642435 C51.3593325,54.1153909 51.2134342,53.9695515 51.1645061,53.7827787 C51.1155779,53.596006 51.1712343,53.3973661 51.3100838,53.2632063 L52.3409963,52.2322937 L20.466962,52.2322937 C20.3252504,52.2323748 20.1893196,52.1761159 20.0891144,52.0759107 C19.9889091,51.9757054 19.9326503,51.8397746 19.9327313,51.698063 L19.9327313,19.8237234 L18.9018187,20.8543307 C18.691731,21.0535397 18.3611934,21.0491477 18.1564728,20.8444271 C17.9517522,20.6397065 17.9473603,20.3091689 18.1465692,20.0990812 L20.0887267,18.1566184 C20.1888762,18.0563441 20.324783,18 20.4665041,18 C20.6082252,18 20.744132,18.0563441 20.8442815,18.1566184 L22.7873548,20.0987759 C22.9959955,20.3074166 22.9959955,20.64569 22.7873548,20.8543307 C22.5787141,21.0629714 22.2404407,21.0629714 22.0318,20.8543307 L21.0011927,19.8240287 L21.0011927,51.1641376 L52.3409963,51.1641376 L51.3100838,50.133225 C51.1076671,49.9235633 51.1106297,49.5903608 51.3167423,49.3843314 C51.522855,49.1783021 51.8560587,49.1754741 52.0656386,49.3779755 L54.0084066,51.3207435 Z M23.924503,40.5903386 L23.9238925,40.5894228 C23.6470431,40.5893879 23.4160893,40.3778616 23.3917907,40.1020806 C23.3674921,39.8262996 23.5579004,39.5776478 23.8304784,39.5292038 C28.7976027,38.6393282 43.5341272,30.0495093 48.9545843,20.811287 L47.4678967,21.1660162 C47.1808576,21.2344672 46.892676,21.0572666 46.824225,20.7702276 C46.755774,20.4831885 46.9329746,20.1950069 47.2200136,20.1265559 L49.8926934,19.4891424 C50.0306572,19.4564129 50.1759722,19.47984 50.2966605,19.5542682 C50.4173487,19.6286965 50.5035204,19.7480268 50.5362124,19.8859995 L51.173626,22.558374 C51.2114037,22.717274 51.1744612,22.8847259 51.0733324,23.0129809 C50.9722037,23.1412359 50.8179877,23.2162181 50.654659,23.2165462 C50.4076127,23.2162281 50.1930067,23.0465632 50.1356921,22.806257 L49.8148484,21.4615221 C44.2814396,30.7568307 29.7119003,39.5609524 24.0194434,40.5820962 C23.9880888,40.5875399 23.9563267,40.5902973 23.924503,40.5903386 Z M27.0209041,42.2693493 L29.7683762,42.2693493 C30.0634236,42.2693493 30.3026068,42.5085326 30.3026068,42.80358 L30.3026068,48.5491547 C30.3026068,48.8442022 30.0634236,49.0833854 29.7683762,49.0833854 L27.0209041,49.0833854 C26.7258566,49.0833854 26.4866734,48.8442022 26.4866734,48.5491547 L26.4866734,42.80358 C26.4866734,42.5085326 26.7258566,42.2693493 27.0209041,42.2693493 Z M29.2341455,48.014924 L29.2341455,43.3378107 L27.5551347,43.3378107 L27.5551347,48.014924 L29.2341455,48.014924 Z M33.3577958,38.6060532 L36.1052679,38.6060532 C36.4003154,38.6060532 36.6394986,38.8452364 36.6394986,39.1402839 L36.6394986,48.5491547 C36.6394986,48.8442022 36.4003154,49.0833854 36.1052679,49.0833854 L33.3577958,49.0833854 C33.0627484,49.0833854 32.8235651,48.8442022 32.8235651,48.5491547 L32.8235651,39.1402839 C32.8235651,38.8452364 33.0627484,38.6060532 33.3577958,38.6060532 Z M35.5710372,48.014924 L35.5710372,39.6745146 L33.8920265,39.6745146 L33.8920265,48.014924 L35.5710372,48.014924 Z M39.6946876,34.9427571 L42.4424649,34.9427571 C42.7374426,34.9429255 42.9765272,35.1820101 42.9766956,35.4769878 L42.9766956,48.5491547 C42.9765272,48.8441324 42.7374426,49.083217 42.4424649,49.0833854 L39.6949928,49.0833854 C39.3999454,49.0833854 39.1607622,48.8442022 39.1607622,48.5491547 L39.1607622,35.4769878 C39.1607621,35.1820595 39.3997593,34.9429256 39.6946876,34.9427571 Z M41.907929,48.014924 L41.9082342,36.0112185 L40.2292235,36.0112185 L40.2292235,48.014924 L41.907929,48.014924 Z M46.031274,31.279461 L48.7787461,31.279461 C49.0737936,31.279461 49.3129768,31.5186442 49.3129768,31.8136916 L49.3129768,48.5491547 C49.3129768,48.8442022 49.0737936,49.0833854 48.7787461,49.0833854 L46.031274,49.0833854 C45.7362964,49.083217 45.4972118,48.8441324 45.4970434,48.5491547 L45.4970434,31.8136916 C45.4972118,31.518714 45.7362964,31.2796294 46.031274,31.279461 Z M48.2445154,48.014924 L48.2445154,32.3479223 L46.5655047,32.3479223 L46.5655047,48.014924 L48.2445154,48.014924 Z" id="Combined-Shape" fill="#226E86"></path>
        </g>
    </g>
</svg>