<?xml version="1.0" encoding="UTF-8" standalone="no"?>
<svg width="72px" height="72px" viewBox="0 0 72 72" version="1.1" xmlns="http://www.w3.org/2000/svg" xmlns:xlink="http://www.w3.org/1999/xlink">
    <!-- Generator: Sketch 43.1 (39012) - http://www.bohemiancoding.com/sketch -->
    <title>f5</title>
    <desc>Created with Sketch.</desc>
    <defs></defs>
    <g id="Page-1" stroke="none" stroke-width="1" fill="none" fill-rule="evenodd">
        <g id="f5" fill-rule="nonzero">
            <circle id="Oval-2-Copy-3-Copy" fill="#0E80A4" opacity="0.1" cx="36" cy="36" r="36"></circle>
            <path d="M54.9683878,24.3898067 C54.8722697,23.3119225 53.9837167,22.4990686 52.9015163,22.4990686 L47.5328462,22.4990686 L47.5328462,21.7078787 L47.6373477,21.7078787 C48.4039685,21.7078787 49.0276573,21.08419 49.0276573,20.3176522 L49.0276573,18.3902266 C49.0276573,17.6236887 48.4039685,17 47.6373477,17 L31.8359606,17 C31.4921598,17 31.2134339,17.2786429 31.2134339,17.6225267 C31.2134339,17.9664104 31.4921598,18.2450534 31.8359606,18.2450534 L47.6373477,18.2450534 C47.7174461,18.2450534 47.7826039,18.3101281 47.7826039,18.3902266 L47.7826039,20.3176522 C47.7826039,20.3977506 47.7174461,20.4628254 47.6373477,20.4628254 L24.3626523,20.4628254 C24.2825539,20.4628254 24.2173961,20.3977506 24.2173961,20.3176522 L24.2173961,18.3902266 C24.2173961,18.3101281 24.2825539,18.2450534 24.3626523,18.2450534 L28.9171405,18.2450534 C29.2609412,18.2450534 29.5396672,17.9664104 29.5396672,17.6225267 C29.5396672,17.2786429 29.2609412,17 28.9171405,17 L24.3626523,17 C23.5960315,17 22.9723427,17.6236887 22.9723427,18.3902266 L22.9723427,20.3176522 C22.9723427,21.08419 23.5960315,21.7078787 24.3626523,21.7078787 L24.4671538,21.7078787 L24.4671538,22.4990686 L19.0984837,22.4990686 C18.0162833,22.4990686 17.1277303,23.3119225 17.0316122,24.3898067 C17.0189956,24.5307467 16.7392736,27.8859995 18.1132315,31.6020687 C19.3703204,35.0020604 22.254362,39.3433125 28.8622751,41.0470435 C29.9260487,41.8875375 31.1407228,42.5452577 32.4585702,42.9714809 L32.7719087,43.4886761 C33.364139,44.466375 33.6771455,45.6221995 33.6771455,46.8311463 C33.6771455,47.569629 33.5594464,48.2910959 33.3273685,48.9752942 L32.8922638,50.2575332 L31.4445988,50.2575332 C29.9590011,50.2575332 28.7503033,51.466231 28.7503033,52.9519116 L28.7503033,54.2559805 L26.4846382,54.2559805 C25.8452618,54.2559805 25.3250786,54.7762468 25.3250786,55.4156232 L25.3250786,58.3398385 C25.3250786,58.9792149 25.8452618,59.4993982 26.4846382,59.4993982 L45.5154448,59.4993982 C46.1548212,59.4993982 46.6750045,58.9792149 46.6750045,58.3398385 L46.6750045,55.4156232 C46.6750045,54.7762468 46.1548212,54.2559805 45.5154448,54.2559805 L43.2497797,54.2559805 L43.2497797,52.9519116 C43.2497797,51.466231 42.0410819,50.2575332 40.5554842,50.2575332 L39.1078192,50.2575332 L38.6727145,48.9752942 C38.4405536,48.2911789 38.3228545,47.569712 38.3228545,46.8311463 C38.3228545,45.6222825 38.635861,44.466458 39.2280913,43.4886761 L39.5414298,42.9714809 C40.8592772,42.5452577 42.0738683,41.8876205 43.1377249,41.0470435 C49.745638,39.3433125 52.6296796,35.0020604 53.8867685,31.6020687 C55.2607264,27.8859995 54.9810044,24.5308297 54.9683878,24.3898067 L54.9683878,24.3898067 Z M24.6976547,34.2941231 C23.5369329,33.2074405 22.6477158,31.8593798 22.0395488,30.2526799 C21.6169776,29.1362821 21.3404098,27.9241811 21.2173155,26.6492465 L24.4671538,26.6492465 L24.4671538,31.9956716 C24.4671538,32.7825453 24.5467542,33.5511583 24.6976547,34.2941231 L24.6976547,34.2941231 Z M19.2810916,31.1703672 C18.0032518,27.7142651 18.2602308,24.630019 18.2717683,24.5004504 C18.3101989,24.0693299 18.6656202,23.744205 19.0984837,23.744205 L24.4671538,23.744205 L24.4671538,25.4042761 L21.1657703,25.4042761 C20.8294399,25.4042761 20.5067221,25.5467933 20.2802884,25.7953059 C20.0536057,26.0441506 19.9415509,26.3791529 19.9728432,26.7144873 C20.1039058,28.1191565 20.4074498,29.4579209 20.8750919,30.6935118 C21.7986724,33.1336504 23.2936495,35.038997 25.3400192,36.3954411 C25.7426694,37.3672468 26.2744732,38.2724836 26.9140986,39.0896536 C22.4038514,37.2201645 20.2797073,33.871137 19.2810916,31.1703672 L19.2810916,31.1703672 Z M45.4299511,55.5010339 L45.4299511,58.2543449 L26.5700489,58.2543449 L26.5700489,55.5010339 L45.4299511,55.5010339 Z M40.5554842,51.5025865 C41.3545595,51.5025865 42.0047263,52.1527534 42.0047263,52.9519116 L42.0047263,54.2559805 L29.9953567,54.2559805 L29.9953567,52.9519116 C29.9953567,52.1527534 30.6455235,51.5025865 31.4445988,51.5025865 L40.5554842,51.5025865 Z M37.493732,49.3753714 L37.7930428,50.2575332 L34.2068742,50.2575332 L34.506268,49.3752884 C34.7821718,48.5619365 34.9221158,47.7060038 34.9221158,46.8311463 C34.9221158,45.6065949 34.6484531,44.4243752 34.1280208,43.3757913 C34.7375159,43.4757276 35.3626157,43.5285178 36,43.5285178 C36.6373013,43.5285178 37.2624841,43.4757276 37.8718962,43.3757913 C37.3514639,44.4243752 37.0778012,45.6065949 37.0778012,46.8311463 C37.0778842,47.7060868 37.2177452,48.5620195 37.493732,49.3753714 L37.493732,49.3753714 Z M36,42.2833815 C30.3272879,42.2833815 25.7122071,37.6683007 25.7122071,31.9956716 L25.7122071,21.7078787 L46.2877929,21.7078787 L46.2877929,31.9956716 C46.2877929,37.6683837 41.6727121,42.2833815 36,42.2833815 L36,42.2833815 Z M52.7189915,31.1703672 C51.7203757,33.87122 49.5961486,37.2205795 45.0856523,39.0900686 C45.7264398,38.2714045 46.2590736,37.3644247 46.6620559,36.3906269 C48.4191582,35.2238459 49.7723652,33.6524226 50.7041631,31.6847403 C50.8513284,31.374058 50.7186887,31.0027831 50.4080064,30.8557008 C50.0974071,30.7086185 49.7262152,30.8410921 49.5789669,31.1518574 C49.0020922,32.3701006 48.2412816,33.4196806 47.3018473,34.2979413 C47.4532458,33.5538144 47.5330122,32.7839564 47.5330122,31.9957546 L47.5330122,26.6493295 L50.7828505,26.6493295 C50.7209298,27.2898679 50.6180054,27.9250942 50.4768164,28.5383244 C50.3997061,28.8734098 50.608792,29.2075821 50.9438774,29.2846094 C51.2786307,29.3621348 51.6130521,29.1527168 51.6901624,28.8176314 C51.8473711,28.1345951 51.960754,27.4269898 52.0273228,26.7144873 C52.0586152,26.3791529 51.9465604,26.0441506 51.7198776,25.7953059 C51.4934439,25.5467933 51.1707261,25.4042761 50.8343957,25.4042761 L47.5330122,25.4042761 L47.5330122,23.744205 L52.9016823,23.744205 C53.3345458,23.744205 53.6899671,24.0693299 53.7283977,24.5005334 C53.7397692,24.630019 53.9967482,27.7142651 52.7189915,31.1703672 L52.7189915,31.1703672 Z M40.0936524,29.0905471 C40.6565825,29.1723056 41.1156752,29.5591852 41.2914768,30.1002024 C41.4672783,30.6412196 41.3234331,31.2240705 40.9160517,31.6211596 L39.6242673,32.8803235 C39.5679909,32.9351059 39.5423428,33.0140422 39.5556234,33.0915676 L39.8605784,34.8695038 C39.9567796,35.4301098 39.7305949,35.9861506 39.2703401,36.3205719 C39.01029,36.509571 38.705916,36.6056062 38.3995498,36.6056062 C38.1638197,36.6056062 37.9268446,36.5487487 37.7077982,36.4336228 L36.1111418,35.5942078 C36.0415848,35.5576032 35.9585812,35.5576032 35.8890242,35.5942078 L34.2924508,36.4336228 C33.7887852,36.6983211 33.1899976,36.6549103 32.7298259,36.3206549 C32.2695711,35.9862336 32.0433864,35.4302758 32.1395876,34.8695868 L32.4445426,33.0916506 C32.4578232,33.0141252 32.4321751,32.9351889 32.3758987,32.8803235 L31.0841973,31.6213256 C30.6768159,31.2241535 30.5329707,30.6413856 30.7087723,30.1002854 C30.8845738,29.5591852 31.3435005,29.1723056 31.9065136,29.0905471 L33.6915881,28.831161 C33.7693624,28.8198725 33.8365123,28.7710664 33.8712908,28.7005964 L34.669619,27.0830231 C34.9213688,26.5728832 35.4311766,26.2559756 36.000083,26.2559756 C36.5689894,26.2559756 37.0787972,26.5728832 37.330547,27.0830231 L38.1288752,28.7005964 C38.1636537,28.7709834 38.2308036,28.8197895 38.3085779,28.831161 L40.0936524,29.0905471 Z M40.0469214,30.7297014 L40.0469214,30.7297014 C40.1393044,30.6396425 40.1244467,30.5377971 40.107182,30.4850899 C40.0900833,30.4323826 40.0422732,30.3412447 39.9145307,30.3226519 L38.1293732,30.0632658 C37.6459605,29.9930448 37.2283696,29.6895838 37.0122284,29.251657 L36.2139002,27.6340837 C36.1567937,27.5182937 36.0552804,27.501029 35.999917,27.501029 C35.9445536,27.501029 35.8430403,27.5182937 35.7859338,27.6340837 L34.9876056,29.251657 C34.7714644,29.6895838 34.3538735,29.9929618 33.8704607,30.0632658 L32.0853862,30.3226519 C31.9576438,30.3412447 31.9098337,30.4323826 31.892735,30.4850899 C31.8755533,30.5377971 31.8606956,30.6396425 31.9531616,30.7297844 L33.2448629,31.9887823 C33.5946399,32.3297609 33.7541728,32.820644 33.6715842,33.3020646 L33.3666292,35.0800008 C33.3448822,35.2073282 33.4167633,35.2808694 33.4615852,35.3134898 C33.5064901,35.3460272 33.5987901,35.3918451 33.713003,35.3316676 L35.3095764,34.4922526 C35.5257177,34.3786207 35.7628588,34.3217633 36,34.3217633 C36.2371412,34.3217633 36.4742823,34.3786207 36.6904236,34.4922526 L38.28708,35.3316676 C38.4013759,35.3919281 38.4936759,35.3461102 38.5384148,35.3134898 C38.5832367,35.2808694 38.6552008,35.2072452 38.6333708,35.0800008 L38.3284158,33.3020646 C38.2459102,32.820644 38.4054431,32.3297609 38.7551371,31.9888653 L40.0469214,30.7297014 Z" id="Combined-Shape" stroke="#E6F2F5" stroke-width="0.1" fill="#226E86"></path>
        </g>
    </g>
</svg>