<?xml version="1.0" encoding="UTF-8" standalone="no"?>
<svg width="72px" height="72px" viewBox="0 0 72 72" version="1.1" xmlns="http://www.w3.org/2000/svg" xmlns:xlink="http://www.w3.org/1999/xlink">
    <!-- Generator: Sketch 43.1 (39012) - http://www.bohemiancoding.com/sketch -->
    <title>f3</title>
    <desc>Created with Sketch.</desc>
    <defs></defs>
    <g id="Page-1" stroke="none" stroke-width="1" fill="none" fill-rule="evenodd">
        <g id="f3" fill-rule="nonzero">
            <circle id="Oval-2-Copy-3-Copy" fill="#0E80A4" opacity="0.1" cx="36" cy="36" r="36"></circle>
            <path d="M60.8768595,30.5709523 C60.7148872,30.1843492 60.4119332,29.8839016 60.0240768,29.7253754 L57.2846458,28.6044143 C56.8971028,28.4458882 56.4703982,28.4474547 56.0837951,28.6097403 C55.6968786,28.7720259 55.3967443,29.0749799 55.2379049,29.4625229 L52.1193898,37.08462 L52.1193898,24.6293571 C52.1193898,24.4676981 52.0551648,24.3123049 51.940813,24.1979531 L43.9164482,16.1739015 C43.8020964,16.0595497 43.6470165,15.9953247 43.4853575,15.9953247 L20.6099808,15.9953247 C20.2731912,15.9953247 20,16.2685159 20,16.6053056 L20,21.3119011 C20,21.6486907 20.2731912,21.9218819 20.6099808,21.9218819 C20.9467705,21.9218819 21.2196483,21.6486907 21.2196483,21.3119011 L21.2196483,17.214973 L42.8750634,17.214973 L42.8750634,24.6293571 C42.8750634,24.9661467 43.1482546,25.2390246 43.4850441,25.2390246 L50.8997415,25.2390246 L50.8997415,40.0659129 L48.2110639,46.6365998 C48.1772283,46.7193091 48.1618769,46.8085974 48.1665763,46.8978859 L48.4535524,52.6383472 C48.4654576,52.8745699 48.6127051,53.0825962 48.8316967,53.1721979 C48.9062603,53.2029006 48.9845835,53.2176253 49.0625933,53.2176253 C49.2129738,53.2176253 49.3608479,53.1621725 49.4755131,53.0565929 L50.8994282,51.7457765 L50.8994282,55.8395716 L21.2196483,55.8395716 L21.2196483,23.751511 C21.2196483,23.4147214 20.9467705,23.1415302 20.6099808,23.1415302 C20.2731912,23.1415302 20,23.4147214 20,23.751511 L20,56.4492391 C20,56.7860287 20.2731912,57.0592199 20.6099808,57.0592199 L51.509409,57.0592199 C51.8461986,57.0592199 52.1193898,56.7860287 52.1193898,56.4492391 L52.1193898,50.6229356 L53.7043373,49.1639317 C53.7701288,49.1031529 53.8215088,49.0289025 53.8556577,48.9461933 L56.6204654,42.1884707 C56.7479755,41.8767445 56.598535,41.5205307 56.2868087,41.3930206 C55.9753959,41.2655105 55.6191821,41.4146378 55.491672,41.726364 L52.9574477,47.9198465 L49.5707541,46.5341531 L54.7748584,33.8154111 L58.161552,35.2011045 L56.3660718,39.5893948 C56.2385617,39.9011209 56.3876889,40.2573347 56.6997285,40.3848448 C57.0114546,40.5123549 57.3673551,40.3632276 57.4948652,40.0515014 L60.8824987,31.7721164 C61.0410248,31.3842601 61.039145,30.9575555 60.8768595,30.5709523 L60.8768595,30.5709523 Z M44.095025,18.0771544 L50.0372468,24.0196896 L44.095025,24.0196896 L44.095025,18.0771544 Z M49.4325919,47.7951561 L52.1723363,48.9161172 L49.6067827,51.2780305 L49.4325919,47.7951561 Z M59.753392,31.3100097 L58.6233453,34.0719978 L55.2366518,32.6863044 L56.3666984,29.9243163 C56.4021004,29.8381608 56.4691451,29.7708028 56.5553005,29.7347742 C56.6417693,29.6984323 56.736697,29.6978057 56.8228525,29.7332077 L59.5622835,30.8541689 C59.6484389,30.8892577 59.7157969,30.9563023 59.7518255,31.0424578 C59.7881675,31.1289265 59.788794,31.2238542 59.753392,31.3100097 Z M40.2954116,22.6534203 C40.6322012,22.6534203 40.9053924,22.9262982 40.9053924,23.2630878 C40.9053924,23.5998774 40.6322012,23.8730686 40.2954116,23.8730686 L32.7334668,23.8730686 C32.3966771,23.8730686 32.1234859,23.5998774 32.1234859,23.2630878 C32.1234859,22.9262982 32.3966771,22.6534203 32.7334668,22.6534203 L40.2954116,22.6534203 Z M24.716621,36.029137 C24.3798313,36.029137 24.1066402,35.7559458 24.1066402,35.4191562 L24.1066402,30.5975822 C24.1066402,30.2607926 24.3798313,29.9879147 24.716621,29.9879147 L29.4705237,29.9879147 L30.0989888,29.1880786 C30.3070152,28.9233462 30.6904854,28.8772923 30.9552176,29.0853186 C31.2199499,29.2933449 31.266004,29.6768151 31.0579776,29.9415474 L30.1478625,31.1001036 L30.1478625,35.4191562 C30.1478625,35.7559458 29.8749846,36.029137 29.5381949,36.029137 L24.716621,36.029137 Z M25.3262884,31.207563 L25.3262884,34.8094887 L28.9282141,34.8094887 L28.9282141,32.6524687 L28.0760581,33.7367746 C27.9682854,33.8739968 27.8069397,33.9585858 27.6330623,33.9689245 C27.6208439,33.9695511 27.6086255,33.9698644 27.5964071,33.9698644 C27.4353746,33.9698644 27.2799815,33.9059526 27.1653164,33.7912876 L26.0004942,32.6264654 C25.7623918,32.388363 25.7623918,32.0023865 26.0004942,31.7639708 C26.2385967,31.5258684 26.6248865,31.5258684 26.8629889,31.7639708 L27.5415808,32.442876 L28.5121615,31.207563 L25.3262884,31.207563 Z M46.7999938,30.9349984 C47.1370967,30.9349984 47.4099745,31.2081896 47.4099745,31.5449792 C47.4099745,31.8817688 47.1370967,32.15496 46.7999938,32.15496 L33.7497881,32.15496 C33.4129985,32.15496 33.1398073,31.8817688 33.1398073,31.5449792 C33.1398073,31.2081896 33.4129985,30.9349984 33.7497881,30.9349984 L46.7999938,30.9349984 Z M33.7497881,35.0820533 C33.4129985,35.0820533 33.1398073,34.8088621 33.1398073,34.4720725 C33.1398073,34.1352829 33.4129985,33.862405 33.7497881,33.862405 L44.2388263,33.862405 C44.5756159,33.862405 44.8484938,34.1352829 44.8484938,34.4720725 C44.8484938,34.8088621 44.5756159,35.0820533 44.2388263,35.0820533 L33.7497881,35.0820533 Z M24.1066402,43.4281697 L24.1066402,38.6065957 C24.1066402,38.2698061 24.3798313,37.9969282 24.716621,37.9969282 L29.4705237,37.9969282 L30.0989888,37.197092 C30.3070152,36.9323597 30.6904854,36.8863057 30.9552176,37.094332 C31.2199499,37.3023583 31.266004,37.6858285 31.0579776,37.9505609 L30.1478625,39.1091171 L30.1478625,43.4281697 C30.1478625,43.7649593 29.8749846,44.0381505 29.5381949,44.0381505 L24.716621,44.0381505 C24.3798313,44.0381505 24.1066402,43.7649593 24.1066402,43.4281697 Z M25.3262884,39.2165765 L25.3262884,42.8185022 L28.9282141,42.8185022 L28.9282141,40.6614822 L28.0760581,41.7457881 C27.9682854,41.8830103 27.8069397,41.9675993 27.6330623,41.977938 C27.6208439,41.9785646 27.6086255,41.9788778 27.5964071,41.9788778 C27.4353746,41.9788778 27.2799815,41.9149661 27.1653164,41.8003011 L26.0004942,40.6354789 C25.7623918,40.3973765 25.7623918,40.0114 26.0004942,39.7729843 C26.2385967,39.5348818 26.6248865,39.5348818 26.8629889,39.7729843 L27.5415808,40.4518895 L28.5121615,39.2165765 L25.3262884,39.2165765 Z M46.7999938,38.9440119 C47.1370967,38.9440119 47.4099745,39.217203 47.4099745,39.5539927 C47.4099745,39.8907823 47.1370967,40.1636602 46.7999938,40.1636602 L33.7497881,40.1636602 C33.4129985,40.1636602 33.1398073,39.8907823 33.1398073,39.5539927 C33.1398073,39.217203 33.4129985,38.9440119 33.7497881,38.9440119 L46.7999938,38.9440119 Z M33.7497881,43.0910668 C33.4129985,43.0910668 33.1398073,42.8178756 33.1398073,42.481086 C33.1398073,42.1442964 33.4129985,41.8714184 33.7497881,41.8714184 L37.652788,41.8714184 C37.9895777,41.8714184 38.2624556,42.1442964 38.2624556,42.481086 C38.2624556,42.8178756 37.9895777,43.0910668 37.652788,43.0910668 L33.7497881,43.0910668 Z M24.1066402,51.4371832 L24.1066402,46.6159224 C24.1066402,46.2791329 24.3798313,46.0059417 24.716621,46.0059417 L29.5381949,46.0059417 C29.8749846,46.0059417 30.1478625,46.2791329 30.1478625,46.6159224 L30.1478625,51.4371832 C30.1478625,51.7739728 29.8749846,52.047164 29.5381949,52.047164 L24.716621,52.047164 C24.3798313,52.047164 24.1066402,51.7739728 24.1066402,51.4371832 Z M25.3262884,47.22559 L25.3262884,50.8272024 L28.9282141,50.8272024 L28.9282141,47.22559 L25.3262884,47.22559 Z M47.4099745,47.5630062 C47.4099745,47.8997958 47.1370967,48.1726737 46.7999938,48.1726737 L33.7497881,48.1726737 C33.4129985,48.1726737 33.1398073,47.8997958 33.1398073,47.5630062 C33.1398073,47.2262166 33.4129985,46.9530254 33.7497881,46.9530254 L46.7999938,46.9530254 C47.1370967,46.9530254 47.4099745,47.2262166 47.4099745,47.5630062 Z M33.7497881,49.8801187 L44.8484938,49.8801187 C45.1855968,49.8801187 45.4584746,50.1533099 45.4584746,50.4900995 C45.4584746,50.8268891 45.1855968,51.1000803 44.8484938,51.1000803 L33.7497881,51.1000803 C33.4129985,51.1000803 33.1398073,50.8268891 33.1398073,50.4900995 C33.1398073,50.1533099 33.4129985,49.8801187 33.7497881,49.8801187 Z" id="Combined-Shape" stroke="#E6F2F5" stroke-width="0.2" fill="#226E86"></path>
        </g>
    </g>
</svg>