<?xml version="1.0" encoding="UTF-8" standalone="no"?>
<svg width="72px" height="72px" viewBox="0 0 72 72" version="1.1" xmlns="http://www.w3.org/2000/svg" xmlns:xlink="http://www.w3.org/1999/xlink">
    <!-- Generator: Sketch 43.1 (39012) - http://www.bohemiancoding.com/sketch -->
    <title>f6</title>
    <desc>Created with Sketch.</desc>
    <defs></defs>
    <g id="Page-1" stroke="none" stroke-width="1" fill="none" fill-rule="evenodd">
        <g id="f6" fill-rule="nonzero">
            <circle id="Oval-2-Copy-3-Copy" fill="#0E80A4" opacity="0.1" cx="36" cy="36" r="36"></circle>
            <path d="M18,26.3443004 L18,45.4865992 C18.002344,47.4434053 19.5880641,49.0291254 21.5448702,49.0314694 L28.6346105,49.0314694 C28.8573483,49.0332198 29.0667466,49.1379189 29.2017897,49.315059 L34.7970128,56.7734658 C35.2059025,57.2636683 35.813055,57.5446922 36.4513802,57.5391989 C37.0897055,57.5337055 37.6919315,57.2422739 38.0923241,56.7451068 L43.6648599,49.315059 C43.8001133,49.1381731 44.0093784,49.0335405 44.2320392,49.0314694 L51.3217795,49.0314694 C53.2785855,49.0291254 54.8643057,47.4434053 54.8666496,45.4865992 L54.8666496,26.3443004 C54.8643057,24.3874943 53.2785855,22.8017742 51.3217795,22.7994302 L46.6765816,22.7994302 C45.3563456,18.0059117 40.8868226,14.7702139 35.9207366,15.0127684 C31.3372856,15.2429379 27.4148301,18.3790178 26.1815603,22.7994302 L21.5448702,22.7994302 C19.5880641,22.8017742 18.002344,24.3874943 18,26.3443004 L18,26.3443004 Z M35.9873802,16.4292986 C38.5062543,16.3072809 40.9651107,17.2227113 42.7909273,18.9622541 C44.6167439,20.7017968 45.650031,23.1134986 45.6499872,25.6353263 C45.6596405,28.1849396 44.6004479,30.621931 42.7297232,32.3542732 C40.9437728,34.0774019 39.9482118,36.4612588 39.978195,38.9427689 L39.978195,39.814807 L32.8884547,39.814807 L32.8884547,39.0618766 C32.9193432,36.5264353 31.9106761,34.0889299 30.0972239,32.3166976 C27.4155118,29.7801102 26.5077756,25.8872067 27.7909614,22.4260956 C29.0741472,18.9649845 32.3002266,16.6046679 35.9873802,16.4292986 L35.9873802,16.4292986 Z M38.5602469,44.7776252 L34.3064027,44.7776252 C33.5232916,44.7776252 32.8884547,44.1427882 32.8884547,43.3596771 L32.8884547,41.232755 L39.978195,41.232755 L39.978195,43.3596771 C39.978195,44.1427882 39.343358,44.7776252 38.5602469,44.7776252 Z M19.4179481,26.3443004 C19.4179481,25.1696338 20.3702035,24.2173783 21.5448702,24.2173783 L25.9029335,24.2173783 C25.8830823,24.3655539 25.8554323,24.5116025 25.8426707,24.661905 C25.5404258,27.9075738 26.7505804,31.1114625 29.1230936,33.3468369 C30.6537403,34.8509763 31.5019787,36.9161076 31.4705066,39.0618766 L31.4705066,43.3596771 C31.4753381,44.6488837 32.3491487,45.7726041 33.5974287,46.0948989 L33.5974287,46.9045473 C33.5974287,47.2961028 33.9148472,47.6135213 34.3064027,47.6135213 C34.6979582,47.6135213 35.0153768,47.2961028 35.0153768,46.9045473 L35.0153768,46.1955733 L37.8512729,46.1955733 L37.8512729,46.9045473 C37.8512729,47.2961028 38.1686914,47.6135213 38.5602469,47.6135213 C38.9518024,47.6135213 39.2692209,47.2961028 39.2692209,46.9045473 L39.2692209,46.0948989 C40.517501,45.7726041 41.3913115,44.6488837 41.396143,43.3596771 L41.396143,38.9427689 C41.3652403,36.8536741 42.1982041,34.8445048 43.6981817,33.3900843 C45.8571862,31.3906577 47.0794324,28.5779229 47.0679353,25.6353263 C47.0644013,25.1609 47.0295861,24.687223 46.9637161,24.2173783 L51.3217795,24.2173783 C52.4964461,24.2173783 53.4487016,25.1696338 53.4487016,26.3443004 L53.4487016,45.4865992 C53.4487016,46.6612658 52.4964461,47.6135213 51.3217795,47.6135213 L44.2320392,47.6135213 C43.5633337,47.6167187 42.9342826,47.9312442 42.5305015,48.4642902 L36.9806528,55.866688 C36.6922133,56.1699634 36.2127551,56.1826474 35.908684,55.895047 L30.3361481,48.4642902 C29.932582,47.9309854 29.303394,47.6163915 28.6346105,47.6135213 L21.5448702,47.6135213 C20.3702035,47.6135213 19.4179481,46.6612658 19.4179481,45.4865992 L19.4179481,26.3443004 Z M35.0153768,34.8519888 C35.4069323,34.8519888 35.7243508,35.1694073 35.7243508,35.5609628 L35.7243508,37.6878849 C35.7243508,38.0794404 35.4069323,38.3968589 35.0153768,38.3968589 C34.6238212,38.3968589 34.3064027,38.0794404 34.3064027,37.6878849 L34.3064027,35.5609628 C34.3064027,35.1694073 34.6238212,34.8519888 35.0153768,34.8519888 Z M34.3064027,32.0160926 L34.3064027,31.3071186 C34.3064027,30.9155631 34.6238212,30.5981446 35.0153768,30.5981446 C35.4069323,30.5981446 35.7243508,30.9155631 35.7243508,31.3071186 L35.7243508,32.0160926 C35.7243508,32.4076481 35.4069323,32.7250667 35.0153768,32.7250667 C34.6238212,32.7250667 34.3064027,32.4076481 34.3064027,32.0160926 Z M37.8512729,38.3968589 C37.4597174,38.3968589 37.1422988,38.0794404 37.1422988,37.6878849 L37.1422988,35.5609628 C37.1422988,35.1694073 37.4597174,34.8519888 37.8512729,34.8519888 C38.2428284,34.8519888 38.5602469,35.1694073 38.5602469,35.5609628 L38.5602469,37.6878849 C38.5602469,38.0794404 38.2428284,38.3968589 37.8512729,38.3968589 Z M37.8512729,32.7250667 C37.4597174,32.7250667 37.1422988,32.4076481 37.1422988,32.0160926 L37.1422988,31.3071186 C37.1422988,30.9155631 37.4597174,30.5981446 37.8512729,30.5981446 C38.2428284,30.5981446 38.5602469,30.9155631 38.5602469,31.3071186 L38.5602469,32.0160926 C38.5602469,32.4076481 38.2428284,32.7250667 37.8512729,32.7250667 Z M25.0897403,19.9635341 C24.9286896,19.9636096 24.7724122,19.90885 24.6466315,19.8082688 L21.1017614,16.9723727 C20.7959565,16.7276504 20.7464392,16.2813601 20.9911614,15.9755552 C21.2358837,15.6697503 21.682174,15.620233 21.9879789,15.8649552 L25.5328491,18.7008513 C25.7680718,18.8889485 25.8587804,19.2051316 25.7590505,19.4893221 C25.6593206,19.7735125 25.3909217,19.9636754 25.0897403,19.9635341 Z M48.2200181,19.8082688 C48.022197,19.9665763 47.7549467,20.0073222 47.5189379,19.9151579 C47.282929,19.8229936 47.1140169,19.611921 47.0758291,19.3614492 C47.0376413,19.1109773 47.1359795,18.8591589 47.3338005,18.7008513 L50.8786707,15.8649552 C51.1844756,15.620233 51.630766,15.6697503 51.8754882,15.9755552 C52.1202104,16.2813601 52.0706931,16.7276504 51.7648882,16.9723727 L48.2200181,19.8082688 Z M20.9911614,40.2579157 C21.1086487,40.4048161 21.2796984,40.4990056 21.4666547,40.5197489 C21.653611,40.5404923 21.8411475,40.486089 21.9879789,40.3685157 L25.5328491,37.5326196 C25.838654,37.2878973 25.8881713,36.841607 25.643449,36.5358021 C25.3987268,36.2299972 24.9524364,36.1804799 24.6466315,36.4252021 L21.1017614,39.2610983 C20.9548611,39.3785855 20.8606716,39.5496352 20.8399282,39.7365915 C20.8191848,39.9235479 20.8735881,40.1110843 20.9911614,40.2579157 L20.9911614,40.2579157 Z M50.8786707,40.3685157 C51.1844756,40.6132379 51.630766,40.5637206 51.8754882,40.2579157 C52.1202104,39.9521109 52.0706931,39.5058205 51.7648882,39.2610983 L48.2200181,36.4252021 C47.9142132,36.18048 47.4679228,36.2299972 47.2232006,36.5358021 C46.9784784,36.841607 47.0279957,37.2878973 47.3338005,37.5326196 L50.8786707,40.3685157 Z M29.9171445,24.2039078 L29.9171445,24.2039078 C29.53292,24.1295759 29.2815924,23.7579792 29.3556371,23.3736992 C30.0107291,19.9982738 33.1904776,18.6540591 33.3258916,18.5987591 C33.6878848,18.4493806 34.1024333,18.6217389 34.2518117,18.983732 C34.4011901,19.3457251 34.228832,19.7602736 33.8668388,19.9096521 C33.8413158,19.9202867 31.2556875,21.031958 30.7473531,23.6431093 C30.6829168,23.9760728 30.3916992,24.2167731 30.0525585,24.2173783 C30.0070876,24.2173483 29.9617302,24.2128363 29.9171445,24.2039078 Z M21.5448702,27.7622484 L23.6717923,27.7622484 C24.0633478,27.7622484 24.3807663,27.4448299 24.3807663,27.0532744 C24.3807663,26.6617189 24.0633478,26.3443004 23.6717923,26.3443004 L21.5448702,26.3443004 C21.1533146,26.3443004 20.8358961,26.6617189 20.8358961,27.0532744 C20.8358961,27.4448299 21.1533146,27.7622484 21.5448702,27.7622484 Z M49.1948574,27.7622484 L51.3217795,27.7622484 C51.713335,27.7622484 52.0307535,27.4448299 52.0307535,27.0532744 C52.0307535,26.6617189 51.713335,26.3443004 51.3217795,26.3443004 L49.1948574,26.3443004 C48.8033019,26.3443004 48.4858834,26.6617189 48.4858834,27.0532744 C48.4858834,27.4448299 48.8033019,27.7622484 49.1948574,27.7622484 Z" id="Combined-Shape" stroke="#E6F2F5" stroke-width="0.1" fill="#226E86"></path>
        </g>
    </g>
</svg>