<?xml version="1.0" encoding="UTF-8" standalone="no"?>
<svg width="64px" height="64px" viewBox="0 0 64 64" version="1.1" xmlns="http://www.w3.org/2000/svg" xmlns:xlink="http://www.w3.org/1999/xlink">
    <!-- Generator: Sketch 43.1 (39012) - http://www.bohemiancoding.com/sketch -->
    <title>sn2</title>
    <desc>Created with Sketch.</desc>
    <defs></defs>
    <g id="Page-1" stroke="none" stroke-width="1" fill="none" fill-rule="evenodd">
        <path d="M62.744386,61.4949591 L45.0652008,32.8037037 C44.454386,31.8125497 43.3948265,31.2208304 42.2306043,31.2208304 C41.0663821,31.2208304 40.0068226,31.8125497 39.3960078,32.8037037 L38.1773996,34.7812982 L30.725193,22.6871891 C30.2775361,21.9607135 29.5886472,21.449848 28.7947329,21.2273489 L28.7947329,13.7999181 L32.4338791,13.7999181 C32.9354386,13.7999181 33.3421248,13.393232 33.3421248,12.8916725 C33.3421248,12.3901131 32.9354386,11.9834269 32.4338791,11.9834269 L28.7947329,11.9834269 L28.7947329,4.70307992 L40.2356062,4.70307992 L38.5033528,7.91185185 C38.357961,8.18112281 38.357961,8.50550487 38.5033528,8.77477583 L40.2356062,11.9835478 L36.0667407,11.9835478 C35.5651813,11.9835478 35.1584951,12.3902339 35.1584951,12.8917934 C35.1584951,13.3933528 35.5650604,13.800039 36.0667407,13.800039 L41.7579298,13.800039 C42.0777193,13.800039 42.3740624,13.6318051 42.5379454,13.3570955 C42.7018285,13.0825068 42.7090799,12.741809 42.5571618,12.4604522 L40.3345887,8.34331384 L42.5570409,4.22641715 C42.7089591,3.94493957 42.7017076,3.60436257 42.5378246,3.32965302 C42.3739415,3.05494347 42.0777193,2.88670955 41.757809,2.88670955 L28.7946121,2.88670955 L28.7946121,1.90824561 C28.7946121,1.40668616 28.3879259,1 27.8863665,1 C27.384807,1 26.9781209,1.40668616 26.9781209,1.90824561 L26.9781209,21.2273489 C26.1840858,21.449848 25.4951969,21.9607135 25.04754,22.6871891 L8.07899805,50.225462 C7.81589084,50.6524522 7.94871345,51.2120234 8.3757037,51.4751306 C8.52423782,51.5666199 8.68872515,51.6102495 8.85127875,51.6102495 C9.15608187,51.6102495 9.45375439,51.4568811 9.62537232,51.178425 L20.5581598,33.4357895 L23.5429825,36.9233801 C23.7114581,37.1202573 23.9559532,37.2357973 24.2149513,37.2408733 C24.473345,37.2458285 24.7227953,37.1403197 24.8990058,36.9503314 L27.8863665,33.7280234 L30.8737271,36.9503314 C31.0458285,37.135848 31.2871813,37.241115 31.5397739,37.241115 C31.5456959,37.241115 31.5517388,37.241115 31.5577817,37.2409942 C31.8167797,37.2357973 32.0612749,37.1202573 32.2297505,36.923501 L35.2148148,33.4357895 L40.491462,41.9991618 C40.7545692,42.4260312 41.3137778,42.5589747 41.7411306,42.2959883 C42.1681209,42.0328811 42.3010643,41.4733099 42.0379571,41.0463197 L39.2443314,36.5125848 L40.9425029,33.7565458 C41.2242222,33.2993411 41.6937544,33.0370799 42.2306043,33.0370799 C42.767575,33.0370799 43.2371072,33.2993411 43.5188265,33.7565458 L60.3447563,61.0630136 L54.3717271,61.0626511 L43.9426745,44.1374971 C43.6794464,43.7105068 43.1199961,43.5775634 42.6930058,43.8406706 C42.2660156,44.1037778 42.1330721,44.6633489 42.3961793,45.0903392 L52.2381053,61.0626511 L3.5348694,61.0626511 L7.71811696,54.2737115 C7.98122417,53.8467212 7.84840156,53.2871501 7.42141131,53.0240429 C6.99442105,52.7608148 6.43497076,52.8937583 6.17174269,53.3207485 L1.13523977,61.4943548 C0.962534113,61.7745029 0.955040936,62.1261988 1.11553996,62.4135984 C1.27591813,62.7011189 1.57939181,62.8791423 1.90848733,62.8791423 L53.8644873,62.8791423 L61.9711384,62.8796257 C62.3002339,62.8796257 62.6035867,62.7016023 62.7640858,62.4142027 C62.9245848,62.1268031 62.9169708,61.7751072 62.744386,61.4949591 L62.744386,61.4949591 Z M31.5128226,34.9677817 L28.5525341,31.7747212 C28.3806745,31.5893255 28.1393216,31.4839376 27.8864873,31.4839376 C27.6337739,31.4839376 27.3923002,31.5893255 27.2204405,31.7747212 L24.260152,34.9677817 L21.5589825,31.8115828 L26.5941559,23.6400312 C26.8768421,23.1813762 27.3478246,22.918269 27.8863665,22.918269 C28.4250292,22.918269 28.8960117,23.1813762 29.1786979,23.6400312 L34.2138713,31.8115828 L31.5128226,34.9677817 Z" id="sn2" stroke="#01161E" stroke-width="0.3" fill="#01161E" fill-rule="nonzero"></path>
    </g>
</svg>