<?xml version="1.0" encoding="UTF-8" standalone="no"?>
<svg width="72px" height="72px" viewBox="0 0 72 72" version="1.1" xmlns="http://www.w3.org/2000/svg" xmlns:xlink="http://www.w3.org/1999/xlink">
    <!-- Generator: Sketch 43.1 (39012) - http://www.bohemiancoding.com/sketch -->
    <title>f2</title>
    <desc>Created with Sketch.</desc>
    <defs></defs>
    <g id="Page-1" stroke="none" stroke-width="1" fill="none" fill-rule="evenodd">
        <g id="f2" fill-rule="nonzero">
            <circle id="Oval-2-Copy-5" fill="#0E80A4" opacity="0.1" cx="36" cy="36" r="36"></circle>
            <path d="M53.0000056,16.9999941 L24.3333608,16.9999941 C23.229298,17.001166 22.3345324,17.8959318 22.3333605,18.9999944 L22.3333605,19.6666352 L21.6667197,19.6666352 C20.5626571,19.667807 19.6678913,20.5625728 19.6667194,21.6666355 L19.6667194,21.6883542 C17.2515628,21.8289011 15,22.7297606 15,24.3333546 C15,25.2156985 15.682422,25.8854642 16.697969,26.3333549 C15.682422,26.7812456 15,27.4509332 15,28.3333552 C15,29.215699 15.682422,29.8854648 16.697969,30.3333555 C15.682422,30.7812461 15,31.4509338 15,32.3333558 C15,33.2156996 15.682422,33.8854654 16.697969,34.3333561 C15.682422,34.7812467 15,35.4509344 15,36.3333564 C15,37.2157783 15.682422,37.885466 16.697969,38.3333567 C15.682422,38.7812473 15,39.450935 15,40.3333569 C15,41.2157789 15.682422,41.8854666 16.697969,42.3333572 C15.682422,42.7812479 15,43.4509356 15,44.3333575 C15,45.2157795 15.682422,45.8854672 16.697969,46.3333578 C15.682422,46.7812485 15,47.450936 15,48.3333581 C15,49.215702 15.682422,49.8854677 16.697969,50.3333584 C15.682422,50.7812491 15,51.4509366 15,52.3333587 C15,53.9369527 17.2515628,54.8378122 19.6666413,54.978281 L19.6666413,54.9999997 C19.6678132,56.1040623 20.5625789,56.9988281 21.6666416,57 L50.3332864,57 C51.437349,56.9988281 52.3321148,56.1040623 52.3332867,54.9999997 L52.3332867,54.333359 L52.9999274,54.333359 C54.1039901,54.3321871 54.9987559,53.4374214 54.9999277,52.3333587 L54.9999277,18.9999944 C54.998834,17.8959318 54.1040682,17.001166 53.0000056,16.9999941 Z M19.6666413,53.6379682 C17.587891,53.5007026 16.3332815,52.7590619 16.3332815,52.3332806 C16.3332815,51.9075774 17.587891,51.1658585 19.6666413,51.0285929 L19.6666413,53.6379682 Z M19.6666413,49.6379676 C17.587891,49.500702 16.3332815,48.7590613 16.3332815,48.33328 C16.3332815,47.9074987 17.587891,47.1658579 19.6666413,47.0285923 L19.6666413,49.6379676 Z M19.6666413,45.6379671 C17.587891,45.5007014 16.3332815,44.7590607 16.3332815,44.3332794 C16.3332815,43.9074981 17.587891,43.1658573 19.6666413,43.0285917 L19.6666413,45.6379671 Z M19.6666413,41.6379665 C17.587891,41.5007008 16.3332815,40.7590601 16.3332815,40.3332788 C16.3332815,39.9074975 17.587891,39.1658567 19.6666413,39.0285911 L19.6666413,41.6379665 Z M19.6666413,37.637966 C17.587891,37.5007003 16.3332815,36.7590596 16.3332815,36.3332783 C16.3332815,35.9074969 17.587891,35.1658561 19.6666413,35.0285905 L19.6666413,37.637966 Z M19.6666413,33.6379654 C17.587891,33.5006997 16.3332815,32.759059 16.3332815,32.3332777 C16.3332815,31.9075745 17.587891,31.1658556 19.6666413,31.02859 L19.6666413,33.6379654 Z M19.6666413,29.6379648 C17.587891,29.5006991 16.3332815,28.7590584 16.3332815,28.3332771 C16.3332815,27.9075739 17.587891,27.1658551 19.6666413,27.0285894 L19.6666413,29.6379648 Z M19.6666413,25.6379642 C17.587891,25.5006985 16.3332815,24.7590578 16.3332815,24.3332765 C16.3332815,23.9074952 17.587891,23.1658545 19.6666413,23.0285888 L19.6666413,25.6379642 Z M51.0000053,54.9999997 C50.9995366,55.3679685 50.7013334,55.6661717 50.3333645,55.6666404 L21.6666416,55.6666404 C21.2986728,55.6661717 21.0004696,55.3679685 21.0000009,54.9999997 L21.0000009,54.978281 C23.4151574,54.837734 25.6666422,53.9368746 25.6666422,52.3333587 C25.6666422,51.9651555 25.3682047,51.6667179 25.0000015,51.6667179 C24.6317983,51.6667179 24.3333608,51.9652336 24.3333608,52.3333587 C24.3333608,52.75914 23.0787512,53.5007807 21.0000009,53.6380464 L21.0000009,50.9783585 C23.4151574,50.8378116 25.6666422,49.9369521 25.6666422,48.3334362 C25.6666422,47.965233 25.3682047,47.6667955 25.0000015,47.6667955 C24.6317983,47.6667955 24.3333608,47.9653111 24.3333608,48.3334362 C24.3333608,48.7591394 23.0787512,49.5008582 21.0000009,49.6381239 L21.0000009,46.978436 C23.4151574,46.8378891 25.6666422,45.9370296 25.6666422,44.3335138 C25.6666422,43.9653106 25.3682047,43.6668731 25.0000015,43.6668731 C24.6317983,43.6668731 24.3333608,43.9653106 24.3333608,44.3335138 C24.3333608,44.7592169 23.0787512,45.5009359 21.0000009,45.6382015 L21.0000009,42.9785136 C23.4151574,42.8380448 25.6666422,41.9371072 25.6666422,40.3335914 C25.6666422,39.9653882 25.3682047,39.6669506 25.0000015,39.6669506 C24.6317983,39.6669506 24.3333608,39.9653882 24.3333608,40.3335914 C24.3333608,40.7592945 23.0787512,41.5010134 21.0000009,41.638279 L21.0000009,38.9785911 C23.4151574,38.8381224 25.6666422,37.9371847 25.6666422,36.3336689 C25.6666422,35.9654657 25.3682047,35.6670281 25.0000015,35.6670281 C24.6317983,35.6670281 24.3333608,35.9654657 24.3333608,36.3336689 C24.3333608,36.7593721 23.0787512,37.5010909 21.0000009,37.6383566 L21.0000009,34.9785905 C23.4151574,34.8381218 25.6666422,33.9371841 25.6666422,32.3336683 C25.6666422,31.9654651 25.3682047,31.6670275 25.0000015,31.6670275 C24.6317983,31.6670275 24.3333608,31.9654651 24.3333608,32.3336683 C24.3333608,32.7594496 23.0787512,33.5010903 21.0000009,33.638356 L21.0000009,30.97859 C23.4151574,30.8381212 25.6666422,29.9371835 25.6666422,28.3336677 C25.6666422,27.9654645 25.3682047,27.667027 25.0000015,27.667027 C24.6317983,27.667027 24.3333608,27.9654645 24.3333608,28.3336677 C24.3333608,28.759449 23.0787512,29.5010897 21.0000009,29.6383554 L21.0000009,26.9786675 C23.4151574,26.8381206 25.6666422,25.9372611 25.6666422,24.3337452 C25.6666422,23.965542 25.3682047,23.6671045 25.0000015,23.6671045 C24.6317983,23.6671045 24.3333608,23.9656201 24.3333608,24.3337452 C24.3333608,24.7594484 23.0787512,25.5011672 21.0000009,25.6384329 L21.0000009,21.6666355 C21.0004696,21.2986666 21.2986728,21.0004634 21.6666416,20.9999947 L51.0000053,20.9999947 L51.0000053,54.9999997 Z M53.6666463,52.3333587 C53.6661776,52.7013275 53.3679744,52.9995307 53.0000056,52.9999994 L52.3333648,52.9999994 L52.3333648,20.333354 C52.3333648,19.9651508 52.0349273,19.6667133 51.6667241,19.6667133 L23.66672,19.6667133 L23.66672,18.9999944 C23.6671887,18.6320256 23.9653919,18.3338224 24.3333608,18.3333537 L53.0000056,18.3333537 C53.3679744,18.3338224 53.6661776,18.6320256 53.6666463,18.9999944 L53.6666463,52.3333587 Z M31.0000024,43.6666386 C30.2639085,43.6659356 29.667424,43.069373 29.6666428,42.3332791 L29.6666428,23.6666358 C29.667424,22.9305419 30.2639085,22.3339793 31.0000024,22.3332762 L48.3333642,22.3332762 C49.0694581,22.3340574 49.6660207,22.9305419 49.6667238,23.6666358 L49.6667238,42.3332791 C49.6659426,43.069373 49.0694581,43.6659356 48.3333642,43.6666386 L31.0000024,43.6666386 Z M31.0000024,23.6666358 L31.0000024,34.9447624 L34.6647685,31.2001525 C34.9309404,30.9442931 35.3517217,30.9442931 35.6178936,31.2001525 L39.2442223,34.9049967 L42.1882071,31.869137 C42.4547697,31.6103088 42.8786759,31.6103088 43.1452385,31.869137 L48.3340674,37.2164034 L48.3333642,23.6666358 L31.0000024,23.6666358 Z M31.0000024,36.8513251 L31.0000024,42.3332791 L48.3343018,42.3332791 L48.3341455,39.1310911 L42.6666446,33.2906215 L40.177113,35.8581219 L42.1432071,37.8667941 C42.3107071,38.0368722 42.3745352,38.2835911 42.3105509,38.5135911 C42.2465665,38.7435911 42.0644571,38.9218724 41.833129,38.9809348 C41.6018007,39.0399974 41.3565664,38.9709348 41.190082,38.799763 L35.141253,32.619762 L31.0000024,36.8513251 Z M44.3333636,30.3333555 C42.8612541,30.3316367 41.6683633,29.1387459 41.6667226,27.6666364 C41.6667226,26.1939017 42.8606291,24.9999953 44.3333636,24.9999953 C45.8060983,24.9999953 47.0000047,26.1939798 47.0000047,27.6667145 C47.0000047,29.139449 45.8060983,30.3333555 44.3333636,30.3333555 Z M44.3333636,26.3333549 C43.5972698,26.334058 43.0007072,26.9306206 43.0000041,27.6667145 C43.0000041,28.4031209 43.5969573,29.0000741 44.3333636,29.0000741 C45.06977,29.0000741 45.6667232,28.4031209 45.6667232,27.6667145 C45.6667232,26.9303081 45.06977,26.3333549 44.3333636,26.3333549 Z M48.3333642,45.6666389 C48.7015674,45.6666389 49.000005,45.9651546 49.000005,46.3333578 C49.000005,46.701561 48.7015674,46.9999985 48.3333642,46.9999985 L31.0000024,46.9999985 C30.6317992,46.9999985 30.3333617,46.7014828 30.3333617,46.3332797 C30.3333617,45.9650765 30.6317992,45.6666389 31.0000024,45.6666389 L48.3333642,45.6666389 Z M48.3333642,48.3333581 C48.7015674,48.3333581 49.000005,48.6317956 49.000005,48.9999988 C49.000005,49.368202 48.7015674,49.6666395 48.3333642,49.6666395 L31.0000024,49.6666395 C30.6317992,49.6666395 30.3333617,49.368202 30.3333617,48.9999988 C30.3333617,48.6317956 30.6317992,48.3333581 31.0000024,48.3333581 L48.3333642,48.3333581 Z M48.3333642,50.9999991 C48.7015674,50.9999991 49.000005,51.2984366 49.000005,51.6666398 C49.000005,52.034843 48.7015674,52.3332806 48.3333642,52.3332806 L31.0000024,52.3332806 C30.6317992,52.3332806 30.3333617,52.034843 30.3333617,51.6666398 C30.3333617,51.2984366 30.6317992,50.9999991 31.0000024,50.9999991 L48.3333642,50.9999991 Z" id="Combined-Shape" stroke="#E6F2F5" stroke-width="0.4" fill="#226E86"></path>
        </g>
    </g>
</svg>