<?xml version="1.0" encoding="UTF-8" standalone="no"?>
<svg width="70px" height="59px" viewBox="0 0 70 59" version="1.1" xmlns="http://www.w3.org/2000/svg" xmlns:xlink="http://www.w3.org/1999/xlink">
    <!-- Generator: Sketch 43.1 (39012) - http://www.bohemiancoding.com/sketch -->
    <title>sn1</title>
    <desc>Created with Sketch.</desc>
    <defs></defs>
    <g id="Page-1" stroke="none" stroke-width="1" fill="none" fill-rule="evenodd">
        <path d="M57.3761828,16.7910152 L57.3779434,16.7916021 C57.1811712,16.2798477 57.4210771,15.7037731 57.9229267,15.4829592 C58.4247764,15.2621454 59.0115774,15.4744689 59.2559363,15.9652852 L60.0622996,17.802197 C60.2676234,18.3164407 60.0283172,18.9008771 59.5212966,19.1234406 C59.014276,19.3460041 58.4220956,19.12656 58.182546,18.6273402 L57.3761828,16.7910152 Z M67.9310901,35.7335085 L67.9287426,35.7364429 C71.1409404,41.1876989 70.5908645,48.0677021 66.5533235,52.9393209 C62.5157825,57.8109397 55.8574361,59.6284793 49.9046798,57.483928 C43.9519236,55.3393767 39.982519,49.6930634 39.9795124,43.3657893 L39.9795124,43.3429012 L39.9795124,26.9104629 L30.4933005,26.9104629 L30.4933005,43.3429012 L30.4933005,43.3663761 C30.4919418,44.4640938 30.3711171,45.5584034 30.1329606,46.6299758 C30.0529717,46.9880912 29.7880066,47.2763299 29.4378751,47.3861152 C29.0877436,47.4959005 28.705639,47.4105534 28.4354963,47.1622233 C28.1653537,46.9138931 28.0482142,46.5403072 28.1282031,46.1821918 C28.3355448,45.2499967 28.4400458,44.2978768 28.4398326,43.3429012 C28.4389947,37.3477595 24.3266904,32.1355483 18.4962897,30.7397859 C12.665889,29.3440234 6.63910695,32.1289989 3.92354359,37.4738508 C1.20798022,42.8187026 2.51238852,49.3284422 7.07760007,53.2143872 C11.6428116,57.1003322 18.2773215,57.348264 23.1198306,53.8138857 C23.4158028,53.593262 23.807411,53.5484541 24.1455688,53.6965205 C24.4837265,53.8445869 24.7164052,54.1627463 24.7550232,54.5298742 C24.7936413,54.8970022 24.6322569,55.256613 24.3323098,55.4718013 C18.5834062,59.6665042 10.6792179,59.2481838 5.40518881,54.4701044 C0.131159727,49.6920249 -1.06318682,41.8674022 2.54524407,35.7335085 L2.54876531,35.7235317 L13.0103598,11.8800636 C13.6392101,10.4442968 14.628121,9.1952207 15.8813415,8.25377659 L17.7593345,3.98075574 C18.8485521,1.50370822 21.4529325,0.0539850784 24.1321586,0.433336055 C26.8113846,0.812687032 28.9109304,2.92843798 29.2696707,5.6105015 C29.3262724,5.97848503 29.1794082,6.34830167 28.8857704,6.57719569 C28.5921326,6.80608971 28.1976555,6.8582548 27.8546141,6.71355431 C27.5115727,6.56885382 27.2736297,6.24992352 27.2326352,5.87987612 C26.9951883,4.11124684 25.6102302,2.71646841 23.8433228,2.46653098 C22.0764154,2.21659354 20.3589392,3.17251795 19.6402618,4.80589889 L18.7652345,6.79833205 C21.526614,5.97499003 24.5146534,6.50454936 26.8249015,8.22671748 C29.1351496,9.9488856 30.4960414,12.6612251 30.495648,15.5427367 L30.495648,17.816282 L39.976578,17.816282 L39.976578,15.5450842 C39.975688,13.9794582 40.3800495,12.4402563 41.1503236,11.0772216 L41.1503236,6.40747476 C41.1525218,3.55318672 43.153743,1.09060871 45.9472453,0.504682234 C48.7407477,-0.0812442435 51.5628087,1.36966866 52.7117178,3.98251636 L54.5897107,8.25495033 C55.8429546,9.19661471 56.8318593,10.4458852 57.4606925,11.8818242 C57.6361289,12.2218374 57.608017,12.6311841 57.3877458,12.944022 C57.1674746,13.2568598 56.7915653,13.4213202 56.4123134,13.3707737 C56.0330616,13.3202271 55.7133473,13.0630543 55.5826995,12.7034461 C55.0649369,11.5245302 54.2344535,10.5097655 53.181216,9.76908215 L53.1571542,9.75206284 C50.9982905,8.23775117 48.175826,8.05159652 45.8367765,9.26924988 C43.4977269,10.4869033 42.0313514,12.9057256 42.0335672,15.5427367 L42.0335672,35.7828058 C44.1489392,32.1460137 47.6956113,29.5659109 51.8070097,28.6729052 C55.9184081,27.7798994 60.2158295,28.656246 63.6492661,31.0878234 L59.7524307,22.2078511 C59.5391862,21.691406 59.7776598,21.0992131 60.2892955,20.8746743 C60.8009313,20.6501354 61.3982202,20.8755417 61.6339449,21.3821211 L67.9275688,35.7235317 L67.9310901,35.7335085 Z M47.1921791,2.4261297 L47.1921791,2.4261297 C44.9940892,2.42709642 43.2115191,4.20704116 43.2073128,6.40512727 L43.2073128,8.58418597 C45.5565287,6.58811629 48.7559257,5.91568641 51.7099259,6.7971583 L50.8348986,4.80531202 C50.200642,3.35942345 48.7710632,2.42571753 47.1921791,2.4261297 Z M15.4793337,28.3289344 L15.4793337,28.3289344 C20.8170955,28.3328687 25.7517524,31.1693972 28.4415932,35.7798715 L28.4415932,15.5427367 C28.4421421,12.195661 26.0961275,9.30658573 22.8202073,8.62009975 C19.5442871,7.93361377 16.2357421,9.63774692 14.8924609,12.7034461 L6.82648113,31.0872366 C9.35423538,29.2913331 12.3785583,28.3272584 15.4793337,28.3289344 Z M30.495648,24.8564081 L39.9795124,24.8564081 L39.9795124,19.8679893 L30.495648,19.8679893 L30.495648,24.8564081 Z M54.9958267,56.3010526 L54.9958267,56.3010526 C62.1492164,56.2926464 67.9463607,50.4962897 67.9557387,43.3429012 C67.9566882,38.1006018 64.7995026,33.3739761 59.9564993,31.3672318 C55.1134959,29.3604875 49.5385233,30.4688609 45.831406,34.1754746 C42.1242886,37.8820883 41.0151579,43.4569103 43.0212442,48.3001862 C45.0273305,53.1434622 49.7535272,56.3012899 54.9958267,56.3010526 Z M54.9958267,31.8501712 L54.9958267,31.8501712 C59.8180314,31.8505893 64.127211,34.8611763 65.7863999,39.3889517 C67.4455888,43.9167271 66.1019307,48.9987785 62.4217594,52.1148652 C58.741588,55.2309519 53.5075575,55.7183824 49.3152766,53.335435 C45.1229957,50.9524875 42.8640278,46.2059385 43.658618,41.4496496 C43.7516407,40.8900549 44.2806916,40.5118235 44.8402863,40.6048462 C45.3998811,40.6978689 45.7781124,41.2269198 45.6850897,41.7865146 C44.8896677,46.5455143 47.828871,51.1332323 52.4846819,52.3998024 C57.1404929,53.6663726 61.9987298,51.1998761 63.7237922,46.6937763 C65.4488547,42.1876766 63.4797108,37.1074656 59.1683486,34.9411483 C54.8569863,32.7748309 49.6055642,34.2269458 47.0196385,38.3004901 C46.7156131,38.7793787 46.0809359,38.9211334 45.6020473,38.617108 C45.1231587,38.3130826 44.981404,37.6784054 45.2854294,37.1995168 C47.3862715,33.8644642 51.0542441,31.8438205 54.9958267,31.8501712 Z M28.2338402,49.1828724 L28.2338402,49.1828724 C28.4725071,49.3140277 28.649271,49.534652 28.725219,49.7961774 C28.801167,50.0577027 28.7700732,50.3386898 28.6387824,50.5772822 C28.2697925,51.2474303 27.8501304,51.8884009 27.3834615,52.4945956 C27.0347433,52.9350517 26.3968395,53.0135859 25.951702,52.6708637 C25.5065645,52.3281415 25.4193999,51.6913596 25.7560633,51.2416222 C26.158497,50.7184671 26.5204721,50.1654006 26.8388436,49.5872278 C26.969986,49.3483873 27.1907595,49.1715317 27.452463,49.095674 C27.7141665,49.0198163 27.9952974,49.0511893 28.2338402,49.1828724 Z M15.4793337,31.8501712 L15.4793337,31.8501712 C21.8238728,31.8569632 26.9655346,36.9983625 26.9726506,43.3429012 C26.9728879,47.9915674 24.1727817,52.1826279 19.8780423,53.9617599 C15.5833029,55.7408919 10.6397262,54.7577173 7.35253888,51.4706979 C4.0653516,48.1836785 3.08192462,43.2401519 4.86083731,38.9453217 C6.63975,34.6504915 10.8306675,31.8501712 15.4793337,31.8501712 Z M15.4793337,52.7821633 L15.4793337,52.7798158 C20.6894333,52.7746421 24.9121262,48.5529994 24.9185958,43.3429012 C24.9185958,38.1297407 20.6924942,33.9036391 15.4793337,33.9036391 C10.2661732,33.9036391 6.04007158,38.1297407 6.04007158,43.3429012 C6.04007158,48.5560617 10.2661732,52.7821633 15.4793337,52.7821633 Z" id="sn1" fill="#01161E" fill-rule="nonzero"></path>
    </g>
</svg>