<?xml version="1.0" encoding="UTF-8" standalone="no"?>
<svg width="62px" height="62px" viewBox="0 0 62 62" version="1.1" xmlns="http://www.w3.org/2000/svg" xmlns:xlink="http://www.w3.org/1999/xlink">
    <!-- Generator: Sketch 43.1 (39012) - http://www.bohemiancoding.com/sketch -->
    <title>sn3</title>
    <desc>Created with Sketch.</desc>
    <defs></defs>
    <g id="Page-1" stroke="none" stroke-width="1" fill="none" fill-rule="evenodd">
        <path d="M55.8,0 L50.6333333,0 C50.3592739,-7.87954914e-06 50.0964369,0.108858325 49.9026476,0.302647624 C49.7088583,0.496436923 49.5999921,0.759273878 49.6,1.03333333 L49.6,10.3333333 L6.2,10.3333333 C2.77743862,10.3372028 0.00386948119,13.110772 0,16.5333333 L0,52.7 C0.00386948119,56.1225614 2.77743862,58.8961305 6.2,58.9 L10.3333333,58.9 C10.6073928,58.9000079 10.8702297,58.7911417 11.064019,58.5973524 C11.2578083,58.4035631 11.3666745,58.1407261 11.3666667,57.8666667 L11.3666667,52.7 L25.8333333,52.7 L25.8333333,50.6333333 L11.3666667,50.6333333 L11.3666667,21.7 C11.3666745,21.4259405 11.2578083,21.1631036 11.064019,20.9693143 C10.8702297,20.775525 10.6073928,20.6666588 10.3333333,20.6666667 L6.2,20.6666667 C3.91722303,20.6666667 2.06666667,18.8161103 2.06666667,16.5333333 C2.06666667,14.2505564 3.91722303,12.4 6.2,12.4 L55.8,12.4 C57.3261634,12.4010544 58.7986409,11.8368466 59.9333333,10.8162345 L59.9333333,31 L62,31 L62,6.2 C61.9961305,2.77743862 59.2225614,0.00386948119 55.8,1.51434421e-14 L55.8,0 Z M6.2,22.7333333 L9.3,22.7333333 L9.3,56.8333333 L6.2,56.8333333 C3.91828534,56.8307707 2.06922927,54.9817147 2.06666667,52.7 L2.06666667,21.1507898 C3.20158421,22.1708873 4.67401343,22.7346413 6.2,22.7333333 L6.2,22.7333333 Z M55.8,10.3333333 L51.6666667,10.3333333 L51.6666667,2.06666667 L55.8,2.06666667 C58.082777,2.06666667 59.9333333,3.91722303 59.9333333,6.2 C59.9333333,8.48277697 58.082777,10.3333333 55.8,10.3333333 Z M24.0693378,58.5973289 C23.8755328,58.4035567 23.7666517,58.1407255 23.766652,57.866667 C23.7666522,57.5926086 23.8755338,57.3297776 24.069339,57.1360057 L48.869339,32.3360057 C48.968284,32.2370519 49.0862976,32.1592272 49.2162226,32.1072515 L54.3828893,30.0405849 C54.7666858,29.8870682 55.2050423,29.9770452 55.4973325,30.2693354 C55.7896228,30.5616256 55.8795998,30.9999822 55.7260831,31.3837787 L53.6594164,36.5504454 C53.6074408,36.6803703 53.5296161,36.798384 53.4306623,36.8973289 L28.6306623,61.6973289 C28.4368851,61.8911249 28.1740556,61.9999999 27.9,61.9999999 C27.6259444,61.9999999 27.3631149,61.8911249 27.1693378,61.6973289 L24.0693378,58.5973289 Z M51.2386755,36.1666667 L49.6,34.5279912 L31.4279912,52.7 L33.0666667,54.3386755 L51.2386755,36.1666667 Z M31.6053422,55.8 L29.9666667,54.1613245 L29.3613245,54.7666667 L31,56.4053422 L31.6053422,55.8 Z M52.322575,34.3279185 L52.9117881,32.8548785 L51.4387482,33.4440917 L52.322575,34.3279185 Z M27.9,56.2279912 L26.2613245,57.8666667 L27.9,59.5053422 L29.5386755,57.8666667 L27.9,56.2279912 Z M61.362113,33.145315 C61.7482403,33.305263 61.9999998,33.6820555 62,34.1 L62,60.9666667 C62.0000079,61.2407261 61.8911417,61.5035631 61.6973524,61.6973524 C61.5035631,61.8911417 61.2407261,62.0000079 60.9666667,62 L34.1,62 C33.6820532,62.000012 33.3052555,61.7482505 33.1453158,61.3621174 C32.9853761,60.9759842 33.0737938,60.5315264 33.3693377,60.2360044 L60.2360044,33.3693377 C60.5315346,33.0738124 60.975979,32.9853967 61.362113,33.145315 Z M59.9333333,59.9333333 L59.9333333,36.594725 L36.594725,59.9333333 L59.9333333,59.9333333 Z M47.6119816,55.162113 C47.4520445,54.7759809 47.5404623,54.3315256 47.8360044,54.0360044 L55.0693377,46.8026711 C55.3648598,46.5071271 55.8093175,46.4187094 56.1954507,46.5786491 C56.5815839,46.7385888 56.8333454,47.1153865 56.8333333,47.5333333 L56.8333333,54.7666667 C56.8333412,55.0407261 56.724475,55.3035631 56.5306857,55.4973524 C56.3368964,55.6911417 56.0740595,55.8000079 55.8,55.8 L48.5666667,55.8 C48.1487221,55.7999998 47.7719297,55.5482403 47.6119816,55.162113 Z M54.7666667,50.0279912 L51.0613245,53.7333333 L54.7666667,53.7333333 L54.7666667,50.0279912 Z M24.9735677,23.1934896 C25.1651997,22.9060084 25.4878362,22.7333297 25.8333333,22.7333333 L42.3666667,22.7333333 C42.7121638,22.7333297 43.0348003,22.9060084 43.2264323,23.1934896 L47.3597656,29.3934896 C47.6330084,29.8033189 47.5789719,30.3490444 47.2306623,30.6973289 L34.8306623,43.0973289 C34.6368851,43.2911249 34.3740556,43.3999999 34.1,43.3999999 C33.8259444,43.3999999 33.5631149,43.2911249 33.3693378,43.0973289 L20.9693378,30.6973289 C20.6210281,30.3490444 20.5669916,29.8033189 20.8402344,29.3934896 L24.9735677,23.1934896 Z M31.8974423,28.9333333 L36.3025578,28.9333333 L34.1,25.6294928 L31.8974423,28.9333333 Z M36.7996738,31 L31.4003263,31 L34.1,39.0990277 L36.7996738,31 Z M29.2219007,31 L24.194725,31 L31.735484,38.5407668 L29.2219007,31 Z M23.6307924,28.9333333 L28.0358911,28.9333333 L25.8333333,25.6294928 L23.6307924,28.9333333 Z M38.9781006,31 L36.4645082,38.5407668 L44.005275,31 L38.9781006,31 Z M36.0307756,24.8 L38.2333333,28.1038405 L40.4358911,24.8 L36.0307756,24.8 Z M29.9666667,28.1038405 L32.1692244,24.8 L27.7641089,24.8 L29.9666667,28.1038405 Z M44.5692089,28.9333333 L42.3666667,25.6294928 L40.1641089,28.9333333 L44.5692089,28.9333333 Z M15.5,14.4666667 L17.5666667,14.4666667 L17.5666667,16.5333333 L25.8333333,16.5333333 L25.8333333,18.6 L21.7,18.6 L21.7,21.7 C21.7000079,21.9740595 21.5911417,22.2368964 21.3973524,22.4306857 C21.2035631,22.624475 20.9407261,22.7333412 20.6666667,22.7333333 L17.5666667,22.7333333 L17.5666667,26.8666667 L15.5,26.8666667 L15.5,18.6 L13.4333333,18.6 L13.4333333,16.5333333 L15.5,16.5333333 L15.5,14.4666667 Z M19.6333333,18.6 L17.5666667,18.6 L17.5666667,20.6666667 L19.6333333,20.6666667 L19.6333333,18.6 Z M15.5,28.9333333 L17.5666667,28.9333333 L17.5666667,31 L15.5,31 L15.5,28.9333333 Z M27.9,16.5333333 L29.9666667,16.5333333 L29.9666667,18.6 L27.9,18.6 L27.9,16.5333333 Z M17.5666667,49.6 L15.5,49.6 L15.5,47.5333333 L13.4333333,47.5333333 L13.4333333,45.4666667 L15.5,45.4666667 L15.5,37.2 L17.5666667,37.2 L17.5666667,41.3333333 L20.6666667,41.3333333 C20.9407261,41.3333255 21.2035631,41.4421917 21.3973524,41.635981 C21.5911417,41.8297703 21.7000079,42.0926072 21.7,42.3666667 L21.7,45.4666667 L25.8333333,45.4666667 L25.8333333,47.5333333 L17.5666667,47.5333333 L17.5666667,49.6 Z M17.5666667,43.4 L17.5666667,45.4666667 L19.6333333,45.4666667 L19.6333333,43.4 L17.5666667,43.4 Z M15.5,33.0666667 L17.5666667,33.0666667 L17.5666667,35.1333333 L15.5,35.1333333 L15.5,33.0666667 Z M27.9,45.4666667 L29.9666667,45.4666667 L29.9666667,47.5333333 L27.9,47.5333333 L27.9,45.4666667 Z M50.6333333,14.4666667 L52.7,14.4666667 L52.7,16.5333333 L54.7666667,16.5333333 L54.7666667,18.6 L52.7,18.6 L52.7,28.9333333 L50.6333333,28.9333333 L50.6333333,22.7333333 L47.5333333,22.7333333 C47.2592739,22.7333412 46.9964369,22.624475 46.8026476,22.4306857 C46.6088583,22.2368964 46.4999921,21.9740595 46.5,21.7 L46.5,18.6 L42.3666667,18.6 L42.3666667,16.5333333 L50.6333333,16.5333333 L50.6333333,14.4666667 Z M50.6333333,20.6666667 L50.6333333,18.6 L48.5666667,18.6 L48.5666667,20.6666667 L50.6333333,20.6666667 Z M38.2333333,16.5333333 L40.3,16.5333333 L40.3,18.6 L38.2333333,18.6 L38.2333333,16.5333333 Z" id="sn3" fill="#01161E" fill-rule="nonzero"></path>
    </g>
</svg>